<svg width="107" height="21" viewBox="0 0 107 21" fill="none" xmlns="http://www.w3.org/2000/svg">
<path d="M0.24 14.544H4.8C4.8 16.056 5.784 16.728 7.2 16.728C8.76 16.728 9.6 15.744 9.6 14.232V0.311999H14.4V14.088C14.4 17.712 11.76 20.928 7.2 20.928C2.64 20.928 0.24 18.048 0.24 14.544ZM21.6094 0.311999V20.616H16.8094V0.311999H21.6094ZM48.2207 0.311999L44.1407 20.616H37.7087L35.8367 9.648L35.6207 8.376C35.5727 8.784 35.5007 9.216 35.4287 9.648L33.5567 20.616H27.1247L23.0447 0.311999H28.0367L29.9327 10.872C30.2207 12.48 30.4607 14.064 30.7247 15.672C30.9407 14.088 31.2047 12.48 31.4687 10.896L33.2927 0.311999H37.9727L39.7967 10.896C40.0607 12.48 40.3247 14.088 40.5407 15.672C40.8047 14.064 41.0447 12.48 41.3327 10.872L43.2287 0.311999H48.2207ZM58.0744 0.0239997C63.5224 0.0239997 67.0744 2.928 67.0744 7.464V13.488C67.0744 18.024 63.5224 20.928 58.0744 20.928C52.6264 20.928 49.0744 18.024 49.0744 13.488V7.464C49.0744 2.928 52.6264 0.0239997 58.0744 0.0239997ZM49.7464 10.464C53.8984 10.464 58.0744 15.048 58.0744 20.352C58.0744 15.048 62.2504 10.44 66.4024 10.44C62.2504 10.44 58.0744 5.832 58.0744 0.527999C58.0744 5.832 53.8984 10.464 49.7464 10.464ZM85.9459 20.616H81.1939L75.2179 10.608C74.7139 9.768 74.3299 9.12 73.7299 8.304C73.8259 9.432 73.8739 10.56 73.8739 11.568V20.616H69.1219V0.311999H73.8739L79.7059 9.84C80.3059 10.824 80.8819 11.88 81.3379 13.056C81.1939 11.952 81.1939 10.776 81.1939 9.648V0.311999H85.9459V20.616ZM99.1406 20.616H94.3406V12.72L87.1406 0.311999H92.5646L96.7406 8.112L100.917 0.311999H106.341L99.1406 12.72V20.616Z" fill="white"/>
</svg>
