<svg width="56" height="23" viewBox="0 0 56 23" fill="none" xmlns="http://www.w3.org/2000/svg">
<path d="M0.6 22.616V19.496L10.08 6.152H0.84V2.312H15.744V5.432L6.216 19.376C9.408 19.376 13.392 19.064 15.864 17.816V22.616H0.6ZM24.9971 7.136C29.8691 7.136 32.8211 10.184 32.8211 13.688V16.4C32.8211 20.144 29.8691 22.952 24.9971 22.952C20.1251 22.952 17.1731 20.144 17.1731 16.4V13.688C17.1731 10.184 20.1251 7.136 24.9971 7.136ZM24.9971 8.216C24.9011 12.68 23.1251 14.936 18.9971 15.032C23.1251 15.152 24.9011 17.576 24.9971 21.848C25.0691 17.552 26.8451 15.128 30.9971 15.008C26.8451 14.912 25.0691 12.68 24.9971 8.216ZM41.9391 7.664C46.1631 6.848 48.5631 8.672 48.5631 13.088V22.616H43.8591V13.568C43.8591 11.648 42.9471 10.904 41.2191 11.36L39.2031 11.888V22.616H34.4991V7.472H39.2031V8.192L41.9391 7.664ZM52.7417 5.888C51.2057 5.888 50.1497 4.688 50.1497 3.248C50.1497 1.76 51.2057 0.559999 52.7417 0.559999C54.2537 0.559999 55.3337 1.76 55.3337 3.248C55.3337 4.688 54.2537 5.888 52.7417 5.888ZM50.3897 22.616V7.472H55.0937V22.616H50.3897Z" fill="white"/>
</svg>
